<svg width="80" height="80" viewBox="0 0 80 80" fill="none" xmlns="http://www.w3.org/2000/svg">
<circle cx="40" cy="40" r="40" fill="white"/>
<path d="M40.0955 76.0257C39.2993 75.6019 38.9911 74.9855 39.081 73.9711C39.1196 73.4703 39.1196 72.9566 39.1067 72.4558C39.1067 72.2503 39.1067 72.032 39.1067 71.8266V71.1588L38.439 71.1074C30.7341 70.4782 24.1337 67.4733 18.843 62.1827C13.5395 56.8792 10.5346 50.2916 9.91825 42.5867L9.86688 41.919H9.19913C8.98083 41.919 8.10761 41.9061 7.88931 41.9061C7.6068 41.9061 7.32429 41.9061 7.05462 41.9318C6.95189 41.9318 6.84916 41.9447 6.74643 41.9447C5.91174 41.9447 5.3724 41.6236 5 40.9173V40.1212C5.3724 39.4149 5.91174 39.0939 6.74643 39.0939C6.84916 39.0939 6.95189 39.0939 7.06746 39.1067C7.33713 39.1324 7.61964 39.1324 7.88931 39.1324C8.10761 39.1324 8.95515 39.1196 9.16061 39.1196H9.85404L9.89257 38.4261C10.5603 23.5686 23.1063 11.0483 38.4261 9.91825L39.1067 9.86688V6.69506C39.1067 5.88606 39.4791 5.01284 40.4936 5C41.3668 5 41.8933 5.64207 41.8933 6.65654V9.86688L42.561 9.91825C50.2402 10.5346 56.8278 13.5267 62.1313 18.8302C67.4476 24.1337 70.4525 30.7341 71.0817 38.4518L71.1331 39.1196H74.3435C74.8956 39.1196 75.3579 39.2865 75.6404 39.5818C75.8716 39.8258 76 40.1469 76 40.5193C76 41.5337 75.1268 41.9061 74.3049 41.9061H71.1203L71.0689 42.5739C70.4525 50.2659 67.4476 56.8663 62.1441 62.1698C56.8407 67.4733 50.2402 70.4782 42.5482 71.1074L41.8804 71.1588V71.8266C41.8804 72.0449 41.8804 72.2632 41.8804 72.4815C41.8804 72.9823 41.8548 73.4831 41.9061 73.9711C41.996 74.9855 41.6878 75.6148 40.8917 76.0385H40.0955V76.0257ZM40.5064 63.4797C41.3411 63.4925 41.8804 64.1346 41.8804 65.1234V68.2952L42.6638 68.2438C57.8166 67.1908 67.7045 54.144 68.1668 42.6638L68.1924 41.9061H65.9195C65.5985 41.9061 65.2903 41.9061 64.9693 41.9061C64.507 41.9061 64.1089 41.7392 63.8264 41.4438C63.5824 41.187 63.454 40.8531 63.454 40.4936C63.4668 39.7103 64.1089 39.1324 64.9693 39.1196C65.2774 39.1196 67.4862 39.1196 67.4862 39.1196H68.2695L68.2181 38.3362C67.1394 23.1577 54.1054 13.2827 42.6381 12.8332L41.8804 12.8076V15.8895C41.8804 16.8783 41.3154 17.546 40.4936 17.546C39.6332 17.5332 39.0939 16.8911 39.0939 15.9023V12.7305L38.3105 12.7819C23.1577 13.8477 13.2698 26.8946 12.8076 38.3619L12.7819 39.1196H15.8638C16.4031 39.1196 16.8654 39.2993 17.1608 39.5947C17.4048 39.8387 17.5203 40.1597 17.5203 40.5321C17.5075 41.3668 16.8654 41.9061 15.8766 41.9061H12.7048L12.7562 42.6895C13.822 57.8423 26.856 67.7302 38.3362 68.1924L39.0939 68.2181V65.1362C39.0939 64.1474 39.6589 63.4797 40.4807 63.4797H40.5064Z" fill="#2563EB"/>
<path d="M40.4808 58.9595C35.5498 58.9595 30.9269 57.0333 27.434 53.5404C23.9411 50.0476 22.0278 45.4247 22.0406 40.5064C22.0406 30.3361 30.3233 22.0662 40.4808 22.0662C45.4248 22.0662 50.0605 23.9924 53.5405 27.4853C57.0205 30.9781 58.9468 35.601 58.9339 40.5193C58.9339 50.6897 50.6512 58.9595 40.4937 58.9595H40.4808ZM40.4808 24.8528C31.8514 24.8528 24.8272 31.877 24.8272 40.5064C24.8272 49.0973 31.8129 56.1216 40.4295 56.1729C49.0974 56.1729 56.1088 49.1744 56.1473 40.5578C56.173 36.3972 54.555 32.4677 51.6143 29.4885C48.648 26.5093 44.7185 24.8656 40.5194 24.8528H40.4937H40.4808Z" fill="#2563EB"/>
<path d="M38.7986 45.6685C38.4262 45.6685 38.0538 45.4887 37.6814 45.1163C36.5385 43.9991 35.4084 42.8691 34.2912 41.7262C33.6877 41.1098 33.662 40.2623 34.2142 39.6973C34.4839 39.4148 34.8177 39.2735 35.1645 39.2735C35.5497 39.2735 35.9478 39.4533 36.2688 39.7743C36.7054 40.1981 37.1163 40.6347 37.553 41.097L38.7087 42.3041L40.6606 40.1981C41.9832 38.7727 43.2674 37.3858 44.5772 36.0246C44.834 35.755 45.2064 35.5238 45.5403 35.4211C45.643 35.3954 45.7586 35.3697 45.8613 35.3697C46.2979 35.3697 46.7089 35.6137 46.9528 36.0375C47.2867 36.6025 47.2097 37.2317 46.7602 37.7325C45.8485 38.747 44.9239 39.7358 43.9865 40.7246L42.2144 42.6251C41.4567 43.4469 40.6991 44.256 39.9286 45.065C39.6718 45.3346 39.2609 45.6557 38.7857 45.6557L38.7986 45.6685Z" fill="#2563EB"/>
</svg>
