<svg width="80" height="80" viewBox="0 0 80 80" fill="none" xmlns="http://www.w3.org/2000/svg">
<circle cx="40" cy="40" r="40" fill="white"/>
<path d="M5.85 27.033V27.0369V27.0374V27.0418V27.0462V27.0506V27.055V27.0594V27.0638V27.0682V27.0726V27.077V27.0814V27.0859V27.0903V27.0947V27.0991V27.1035V27.1079V27.1123V27.1167V27.1211V27.1255V27.1299V27.1343V27.1387V27.1432V27.1476V27.152V27.1564V27.1608V27.1652V27.1696V27.174V27.1784V27.1829V27.1873V27.1917V27.1961V27.2005V27.2049V27.2093V27.2137V27.2182V27.2226V27.227V27.2314V27.2358V27.2402V27.2446V27.2491V27.2535V27.2579V27.2623V27.2667V27.2711V27.2756V27.28V27.2844V27.2888V27.2932V27.2976V27.3021V27.3065V27.3109V27.3153V27.3197V27.3242V27.3286V27.333V27.3374V27.3418V27.3463V27.3507V27.3551V27.3595V27.3639V27.3684V27.3728V27.3772V27.3816V27.3861V27.3905V27.3949V27.3993V27.4037V27.4082V27.4126V27.417V27.4214V27.4259V27.4303V27.4347V27.4391V27.4436V27.448V27.4524V27.4568V27.4613V27.4657V27.4701V27.4745V27.479V27.4834V27.4878V27.4922V27.4967V27.5011V27.5055V27.51V27.5144V27.5188V27.5232V27.5277V27.5321V27.5365V27.5409V27.5454V27.5498V27.5542V27.5587V27.5631V27.5675V27.572V27.5764V27.5808V27.5852V27.5897V27.5941V27.5985V27.603V27.6074V27.6118V27.6163V27.6207V27.6251V27.6296V27.634V27.6384V27.6428V27.6473V27.6517V27.6561V27.6606V27.665V27.6694V27.6739V27.6783V27.6827V27.6872V27.6916V27.696V27.7005V27.7049V27.7093V27.7138V27.7182V27.7226V27.7271V27.7315V27.7359V27.7404V27.7448V27.7492V27.7537V27.7581V27.7626V27.767V27.7714V27.7759V27.7803V27.7847V27.7892V27.7936V27.798V27.8025V27.8069V27.8113V27.8158V27.8202V27.8247V27.8291V27.8335V27.838V27.8424V27.8468V27.8513V27.8557V27.8601V27.8646V27.869V27.8735V27.8779V27.8823V27.8868V27.8912V27.8956V27.9001V27.9045V27.909V27.9134V27.9178V27.9223V27.9267V27.9311V27.9356V27.94V27.9445V27.9489V27.9533V27.9578V27.9622V27.9667V27.9711V27.9755V27.98V27.9844V27.9888V27.9933V27.9977V28.0022V28.0066V28.011V28.0155V28.0199V28.0244V28.0288V28.0332V28.0377V28.0421V28.0466V28.051V28.0554V28.0599V28.0643V28.0688V28.0732V28.0776V28.0821V28.0865V28.0909V28.0954V28.0998V28.1043V28.1087V28.1131V28.1176V28.122V28.1265V28.1309V28.1353V28.1398V28.1442V28.1487V28.1531V28.1575V28.162V28.1664V28.1709V28.1753V28.1797V28.1842V28.1886V28.1931V28.1975V28.2019V28.2064V28.2108V28.2153V28.2197V28.2241V28.2286V28.233V28.2375V28.2419V28.2463V28.2508V28.2552V28.2597V28.2641V28.2685V28.273V28.2774V28.2818V28.2863V28.2907V28.2952V28.2996V28.304V28.3085V28.3129V28.3174V28.3218V28.3262V28.3307V28.3351V28.3396V28.344V28.3484V28.3529V28.3573V28.3617V28.3662V28.3706V28.3751V28.3795V28.3839V28.3884V28.3928V28.3973V28.4017V28.4061V28.4106V28.415V28.4194V28.4239V28.4283V28.4328V28.4372V28.4416V28.4461V28.4505V28.4549V28.4594V28.4638V28.4682V28.4727V28.4771V28.4816V28.486V28.4904V28.4949V28.4993V28.5037V28.5082V28.5126V28.517V28.5215V28.5259V28.5304V28.5348V28.5392V28.5437V28.5481V28.5525V28.557V28.5614V28.5658V28.5703V28.5747V28.5791V28.5836V28.588V28.5924V28.5969V28.6013V28.6057V28.6102V28.6146V28.619V28.6235V28.6279V28.6323V28.6368V28.6412V28.6456V28.6501V28.6545V28.6589V28.6634V28.6678V28.6722V28.6767V28.6811V28.6855V28.69V28.6944V28.6988V28.7033V28.7077V28.7121V28.7166V28.721V28.7254V28.7298V28.7343V28.7387V28.7431V28.7476V28.752V28.7564V28.7608V28.7653V28.7697V28.7741V28.7786V28.783V28.7874V28.7918V28.7963V28.8007V28.8051V28.8096V28.814V28.8184V28.8228V28.8273V28.8317V28.8361V28.8405V28.845V28.8494V28.8538V28.8582V28.8627V28.8671V28.8715V28.8759V28.8804V28.8848V28.8892V28.8936V28.8981V28.9025V28.9069V28.9113V28.9158V28.9202V28.9246V28.929V28.9335V28.9379V28.9423V28.9467V28.9511V28.9556V28.96V28.9644V28.9688V28.9732V28.9777V28.9821V28.9865V28.9909V28.9953V28.9998V29.0042V29.0086V29.013V29.0174V29.0219V29.0263V29.0307V29.0351V29.0395V29.0439V29.0484V29.0528V29.0572V29.0616V29.066V29.0704V29.0749V29.0793V29.0837V29.0881V29.0925V29.0969V29.1013V29.1058V29.1102V29.1146V29.119V29.1234V29.1278V29.1322V29.1366V29.1411V29.1455V29.1499V29.1543V29.1587V29.1631V29.1675V29.1719V29.1763V29.1807V29.1852V29.1896V29.194V29.1984V29.2028V29.2072V29.2116V29.216V29.2204V29.2248V29.2292V29.2336V29.238V29.2425V29.2469V29.2513V29.2557V29.2601V29.2645V29.2689V29.2733V29.2777V29.2821V29.2865V29.2909V29.3152L5.8577 29.3383C5.86432 29.3582 5.87084 29.3776 5.87721 29.3965C5.92158 29.5284 5.95908 29.6399 5.97926 29.7605C6.78047 34.9012 11.1853 38.6858 16.3908 38.6987H16.3912C17.8491 38.6987 19.2583 38.4277 20.591 37.8325L20.5914 37.8323C20.8673 37.7081 21.0865 37.5301 21.219 37.2968C21.3524 37.0619 21.3898 36.7851 21.3261 36.4808C21.2699 36.2067 21.1446 35.9684 20.9501 35.7982C20.7545 35.627 20.4986 35.5335 20.1987 35.5335C19.9029 35.5335 19.589 35.631 19.3188 35.7339C17.0643 36.5477 14.8664 36.447 12.7274 35.3712L12.7273 35.3712C9.5161 33.7593 7.78901 30.2094 8.43978 26.6051L8.29217 26.5785L8.43978 26.6051C9.06427 23.1455 12.0647 20.4181 15.616 20.0678C17.0768 19.9305 18.4661 20.2045 19.8373 20.7454C20.0392 20.8274 20.2916 20.8461 20.5284 20.8205C20.7656 20.7949 21.0073 20.7227 21.1861 20.6036L21.1861 20.6036L21.1876 20.6026C21.3509 20.4908 21.4659 20.2691 21.5297 20.0592C21.5943 19.8466 21.6212 19.5981 21.5654 19.4061C21.5102 19.2098 21.3708 19.0283 21.2133 18.8809C21.0535 18.7314 20.8618 18.6047 20.6818 18.5216L20.6811 18.5213C14.7243 15.8077 7.59476 19.3466 6.13416 25.7163C6.03176 26.1388 5.94225 26.5736 5.85336 27.0053L5.85308 27.0067L5.93815 27.0242H5.85V27.0286V27.033Z" fill="#2563EB" stroke="#2563EB" stroke-width="0.3"/>
<path d="M46.266 58.7583C46.1134 58.8918 45.9751 59.0325 45.835 59.1749C45.788 59.2227 45.7409 59.2706 45.6929 59.3186C45.1326 59.8534 44.4959 59.8789 44.0502 59.4205C43.6173 58.9748 43.6682 58.3508 44.1776 57.8287L45.9222 56.0713C46.648 55.32 46.6735 54.3013 46.0113 53.6264M46.266 58.7583L46.3646 58.8713M46.266 58.7583L46.3648 58.8712C46.3647 58.8712 46.3647 58.8712 46.3646 58.8713M46.266 58.7583C46.9664 58.147 47.9214 58.1598 48.5582 58.771M46.3646 58.8713C46.2167 59.0007 46.0839 59.1357 45.945 59.277C45.8973 59.3255 45.849 59.3747 45.799 59.4246L45.7965 59.4271L45.7965 59.4271C45.4974 59.7126 45.166 59.8734 44.837 59.8918C44.505 59.9103 44.1931 59.7826 43.9427 59.525L43.9426 59.525C43.6978 59.2729 43.5851 58.9636 43.611 58.6412C43.6367 58.3217 43.797 58.0039 44.0702 57.7239L44.0703 57.7238C44.3196 57.469 44.5704 57.2197 44.8211 56.9707C45.1537 56.6401 45.486 56.3099 45.8138 55.9676L45.8143 55.9671C46.491 55.2667 46.5024 54.3411 45.9042 53.7314M46.3646 58.8713C47.0097 58.3083 47.8766 58.3247 48.4542 58.8791M45.9042 53.7314C45.9042 53.7314 45.9042 53.7314 45.9042 53.7314L46.0113 53.6264M45.9042 53.7314C45.2934 53.109 44.3809 53.1095 43.6687 53.7742L46.0113 53.6264M45.9042 53.7314L46.0113 53.6264M48.4542 58.8791L48.5582 58.771M48.4542 58.8791C49.0557 59.4575 49.0959 60.3347 48.5208 61.0163M48.4542 58.8791C48.4542 58.8792 48.4542 58.8792 48.4543 58.8792L48.5582 58.771M48.5582 58.771C49.2203 59.4077 49.2585 60.3755 48.6346 61.1141M48.5208 61.0163C48.5211 61.016 48.5214 61.0157 48.5217 61.0153L48.6346 61.1141M48.5208 61.0163C48.4357 61.1135 48.3378 61.2115 48.2483 61.3009C47.5094 62.0399 46.7719 62.7788 46.0345 63.5176C44.5605 64.9945 43.0867 66.4711 41.6014 67.9479L41.601 67.9482C39.1554 70.3938 36.1913 71.604 32.2737 71.6847M48.5208 61.0163C48.5205 61.0166 48.5203 61.017 48.52 61.0173L48.6346 61.1141M48.6346 61.1141C48.5454 61.216 48.4435 61.3179 48.3544 61.407C47.6156 62.1458 46.8783 62.8845 46.1409 63.6233C44.6668 65.1003 43.1926 66.5773 41.7071 68.0543C39.2112 70.5502 36.1804 71.7727 32.1819 71.8364M32.2737 71.6847L32.3033 71.7438L32.316 71.7693L32.1819 71.8364M32.2737 71.6847L32.2643 71.6658L32.1772 71.6611C27.2884 71.3965 23.2671 68.9699 21.1648 64.0099L21.1647 64.0097C20.1176 61.5498 19.8144 59.1662 20.2208 56.9049C20.6273 54.6433 21.7455 52.4939 23.557 50.5056M32.2737 71.6847C32.2424 71.6853 32.211 71.6859 32.1795 71.6864L32.1814 71.8048L32.1819 71.8364M32.1819 71.8364L23.557 50.5056M23.557 50.5056C25.0489 48.8693 26.6347 47.3215 28.2249 45.7692C28.7349 45.2714 29.2453 44.7732 29.7532 44.2715L29.7538 44.2709C30.1192 43.9055 30.5328 43.7278 30.9266 43.7178C31.3194 43.7078 31.7063 43.8641 32.023 44.1925C32.3405 44.5218 32.485 44.9088 32.465 45.3C32.445 45.6927 32.2582 46.1048 31.8848 46.4782L31.8844 46.4786C30.7975 47.574 29.7052 48.6635 28.6145 49.7514C28.0697 50.2948 27.5253 50.8378 26.9821 51.3809C26.953 51.4101 26.9228 51.4395 26.892 51.4694C26.7962 51.5629 26.695 51.6615 26.6035 51.7731C26.3746 52.0441 26.2564 52.3484 26.2601 52.6508C26.2638 52.9546 26.3903 53.2425 26.6255 53.4777C26.8659 53.7181 27.151 53.8464 27.4543 53.8464C27.7555 53.8464 28.056 53.7199 28.3308 53.4864C28.4519 53.3855 28.5671 53.2676 28.674 53.1583C28.708 53.1236 28.7411 53.0897 28.7733 53.0575L44.1945 37.6363L44.1952 37.6356C44.6863 37.1382 45.145 36.8764 45.5581 36.8176C45.963 36.7599 46.3482 36.894 46.7093 37.2433C47.0831 37.6052 47.231 37.9967 47.1804 38.4098C47.1288 38.8313 46.8673 39.3018 46.3637 39.8055L36.8384 49.3307L36.8383 49.3306L36.8343 49.335C36.7794 49.3944 36.7237 49.4496 36.6655 49.5072C36.6455 49.5271 36.6251 49.5472 36.6044 49.5679C36.5254 49.647 36.4438 49.7316 36.3681 49.828L36.368 49.8282C35.9566 50.353 35.9768 51.0389 36.4326 51.4801C36.8936 51.9267 37.5818 51.9726 38.0893 51.5091C38.0895 51.5089 38.0897 51.5087 38.0899 51.5086L23.557 50.5056ZM23.557 50.5056C23.557 50.5056 23.557 50.5056 23.557 50.5056L23.4462 50.4046M23.557 50.5056L23.4462 50.4046M23.4462 50.4046C19.7914 54.4159 18.9128 59.1021 21.0267 64.0685L31.9909 46.5843C32.7804 45.7948 32.8186 44.8015 32.1309 44.0884C31.4433 43.3753 30.4245 43.388 29.6478 44.1648C29.1413 44.6651 28.6318 45.1624 28.1224 45.6596C26.5314 47.2126 24.9413 48.7648 23.4462 50.4046ZM42.7084 35.7055C40.0399 38.3866 37.359 41.0677 34.6536 43.7731L34.6516 43.7706C34.6231 43.7337 34.6171 43.7238 34.6133 43.7143L34.6139 43.7141L34.6075 43.7016C33.9262 42.3717 32.8222 41.5617 31.6136 41.3539C30.4043 41.146 29.1085 41.5441 28.0521 42.594L28.1578 42.7003L28.0521 42.594C27.5676 43.0755 27.0814 43.5558 26.595 44.0365C25.0121 45.6005 23.4263 47.1673 21.8858 48.7858L21.8857 48.7859C18.4795 52.3721 17.114 56.6981 17.9371 61.5467L17.9372 61.547C18.914 67.2407 22.2231 71.2458 27.6614 73.2L27.6616 73.2001C33.0475 75.1282 38.1347 74.2143 42.4551 70.4468L42.3566 70.3337L42.4552 70.4468C45.1193 68.1232 47.5742 65.5451 50.0137 62.9831C50.1335 62.8572 50.2533 62.7314 50.3732 62.6056L50.3735 62.6052C52.2463 60.6262 51.4555 57.4519 48.9786 56.3558C48.854 56.2936 48.7275 56.2366 48.6085 56.1829C48.5966 56.1776 48.5848 56.1723 48.5731 56.167C48.9199 54.9246 48.7796 53.6697 48.1602 52.6748C47.5352 51.6709 46.4326 50.948 44.8923 50.7656C44.8298 49.9357 44.5826 49.2173 44.1447 48.6119C43.7244 48.0307 43.1339 47.5611 42.379 47.1963C42.3903 47.1869 42.4015 47.1775 42.4125 47.1683C42.5671 47.0388 42.7014 46.9264 42.8279 46.8088L42.828 46.8089L42.8316 46.8053L42.8446 46.7923C44.7248 44.9249 46.5929 43.0694 48.4485 41.1884L48.449 41.1879C49.5679 40.0427 49.9419 38.6604 49.4263 37.1135L49.4262 37.1131C48.9112 35.5815 47.7944 34.6649 46.1989 34.4275L46.1983 34.4274C44.8178 34.2283 43.6644 34.7365 42.7084 35.7055ZM42.4133 51.0877C42.4133 51.0877 42.4133 51.0877 42.4133 51.0878L42.5603 51.1177L42.4134 51.0873C42.4134 51.0874 42.4134 51.0876 42.4133 51.0877Z" fill="#2563EB" stroke="#2563EB" stroke-width="0.3"/>
<path d="M54.3387 5.84951L54.3387 5.85014C64.8816 5.81166 73.4425 13.5853 74.3795 23.5849L74.3796 23.5851C75.3419 34.0167 68.2067 43.2307 57.8268 44.8986C55.2851 45.3094 52.7306 45.1938 50.2154 44.565M54.3387 5.84951L50.2515 44.4194M54.3387 5.84951L54.325 5.85082M54.3387 5.84951L54.325 5.85082M50.2154 44.565C50.2153 44.565 50.2153 44.565 50.2152 44.565L50.2515 44.4194M50.2154 44.565C50.2156 44.5651 50.2157 44.5651 50.2158 44.5651L50.2515 44.4194M50.2154 44.565C49.8284 44.4699 49.5186 44.2864 49.3228 44.0338C49.1249 43.7787 49.0517 43.463 49.1242 43.1281M50.2515 44.4194C49.5257 44.2412 49.1437 43.7445 49.271 43.1588M49.1242 43.1281C49.1241 43.1285 49.124 43.1289 49.1239 43.1293L49.271 43.1588M49.1242 43.1281C49.1243 43.1277 49.1243 43.1273 49.1244 43.1269L49.271 43.1588M49.1242 43.1281L49.271 43.1588M54.325 5.85082C54.1852 5.86413 54.0077 5.87673 53.8032 5.89124C53.2442 5.9309 52.484 5.98484 51.743 6.10675C40.0143 7.96768 32.5844 19.8499 36.0622 31.1816L36.0622 31.1816C36.4373 32.4032 37.0092 33.572 37.5706 34.7194C37.6828 34.9487 37.7945 35.1771 37.9042 35.405L37.9042 35.405M54.325 5.85082L37.9042 35.405M37.9042 35.405L37.9052 35.407L37.9042 35.405ZM50.7428 42.2101C50.7427 42.2101 50.7425 42.2101 50.7424 42.21L50.71 42.3565L50.7428 42.2101ZM40.0355 34.26C40.0354 34.2596 40.0352 34.2592 40.035 34.2589L39.8986 34.3212L40.036 34.261C40.0358 34.2607 40.0357 34.2603 40.0355 34.26ZM39.5495 35.8922L39.4783 35.7601L39.5493 35.8923C39.5493 35.8923 39.5494 35.8922 39.5495 35.8922Z" fill="#2563EB" stroke="#2563EB" stroke-width="0.3"/>
<path d="M46.3621 31.045L46.3622 31.045L46.3607 31.0423C46.26 30.8509 46.147 30.6625 46.0362 30.4778C46.0044 30.4246 45.9727 30.3718 45.9415 30.3193C45.8005 30.0816 45.668 29.8469 45.5639 29.602C45.3386 29.067 45.1488 28.5195 44.9504 27.9476C44.9042 27.8143 44.8576 27.6798 44.8099 27.5437H64.8067C64.8042 27.5598 64.8017 27.5754 64.7993 27.5906C64.7971 27.6045 64.795 27.6179 64.7929 27.6311C64.7803 27.7098 64.7687 27.7756 64.7521 27.8367C63.6959 31.4188 61.4012 33.8255 57.8579 35.0066L57.8569 35.0069C56.1688 35.5821 54.4261 35.584 52.6601 35.2687C52.2862 35.1996 51.9499 35.2563 51.6876 35.4256C51.4247 35.5953 51.2511 35.8686 51.1871 36.2031L51.187 36.2037C51.1235 36.5422 51.1783 36.8525 51.3569 37.1044C51.5332 37.3531 51.8179 37.5276 52.1832 37.6232C52.2615 37.6491 52.3568 37.6764 52.4552 37.6908C59.3758 39.0547 66.2283 34.2746 67.3494 27.3029L67.3494 27.3027C67.4498 26.6738 67.3354 26.1281 67.016 25.7289C66.6965 25.3295 66.1902 25.0999 65.5537 25.0664L65.5538 25.0662H65.5459H65.5453H65.5448H65.5443H65.5438H65.5433H65.5427H65.5422H65.5417H65.5412H65.5406H65.5401H65.5396H65.5391H65.5386H65.538H65.5375H65.537H65.5365H65.5359H65.5354H65.5349H65.5344H65.5339H65.5333H65.5328H65.5323H65.5318H65.5312H65.5307H65.5302H65.5297H65.5292H65.5286H65.5281H65.5276H65.5271H65.5265H65.526H65.5255H65.525H65.5245H65.5239H65.5234H65.5229H65.5224H65.5218H65.5213H65.5208H65.5203H65.5197H65.5192H65.5187H65.5182H65.5177H65.5171H65.5166H65.5161H65.5156H65.515H65.5145H65.514H65.5135H65.513H65.5124H65.5119H65.5114H65.5109H65.5103H65.5098H65.5093H65.5088H65.5083H65.5077H65.5072H65.5067H65.5062H65.5056H65.5051H65.5046H65.5041H65.5036H65.503H65.5025H65.502H65.5015H65.5009H65.5004H65.4999H65.4994H65.4989H65.4983H65.4978H65.4973H65.4968H65.4962H65.4957H65.4952H65.4947H65.4942H65.4936H65.4931H65.4926H65.4921H65.4915H65.491H65.4905H65.49H65.4895H65.4889H65.4884H65.4879H65.4874H65.4868H65.4863H65.4858H65.4853H65.4848H65.4842H65.4837H65.4832H65.4827H65.4821H65.4816H65.4811H65.4806H65.4801H65.4795H65.479H65.4785H65.478H65.4774H65.4769H65.4764H65.4759H65.4754H65.4748H65.4743H65.4738H65.4733H65.4727H65.4722H65.4717H65.4712H65.4707H65.4701H65.4696H65.4691H65.4686H65.468H65.4675H65.467H65.4665H65.466H65.4654H65.4649H65.4644H65.4639H65.4633H65.4628H65.4623H65.4618H65.4613H65.4607H65.4602H65.4597H65.4592H65.4586H65.4581H65.4576H65.4571H65.4566H65.456H65.4555H65.455H65.4545H65.4539H65.4534H65.4529H65.4524H65.4518H65.4513H65.4508H65.4503H65.4498H65.4492H65.4487H65.4482H65.4477H65.4471H65.4466H65.4461H65.4456H65.4451H65.4445H65.444H65.4435H65.443H65.4424H65.4419H65.4414H65.4409H65.4404H65.4398H65.4393H65.4388H65.4383H65.4377H65.4372H65.4367H65.4362H65.4357H65.4351H65.4346H65.4341H65.4336H65.433H65.4325H65.432H65.4315H65.431H65.4304H65.4299H65.4294H65.4289H65.4283H65.4278H65.4273H65.4268H65.4263H65.4257H65.4252H65.4247H65.4242H65.4236H65.4231H65.4226H65.4221H65.4216H65.421H65.4205H65.42H65.4195H65.4189H65.4184H65.4179H65.4174H65.4169H65.4163H65.4158H65.4153H65.4148H65.4142H65.4137H65.4132H65.4127H65.4122H65.4116H65.4111H65.4106H65.4101H65.4095H65.409H65.4085H65.408H65.4075H65.4069H65.4064H65.4059H65.4054H65.4048H65.4043H65.4038H65.4033H65.4028H65.4022H65.4017H65.4012H65.4007H65.4001H65.3996H65.3991H65.3986H65.3981H65.3975H65.397H65.3965H65.396H65.3954H65.3949H65.3944H65.3939H65.3934H65.3928H65.3923H65.3918H65.3913H65.3907H65.3902H65.3897H65.3892H65.3887H65.3881H65.3876H65.3871H65.3866H65.386H65.3855H65.385H65.3845H65.3839H65.3834H65.3829H65.3824H65.3819H65.3813H65.3808H65.3803H65.3798H65.3792H65.3787H65.3782H65.3777H65.3772H65.3766H65.3761H65.3756H65.3751H65.3745H65.374H65.3735H65.373H65.3725H65.3719H65.3714H65.3709H65.3704H65.3698H65.3693H65.3688H65.3683H65.3678H65.3672H65.3667H65.3662H65.3657H65.3651H65.3646H65.3641H65.3636H65.3631H65.3625H65.362H65.3615H65.361H65.3604H65.3599H65.3594H65.3589H65.3584H65.3578H65.3573H65.3568H65.3563H65.3557H65.3552H65.3547H65.3542H65.3537H65.3531H65.3526H65.3521H65.3516H65.351H65.3505H65.35H65.3495H65.349H65.3484H65.3479H65.3474H65.3469H65.3463H65.3458H65.3453H65.3448H65.3443H65.3437H65.3432H65.3427H65.3422H65.3416H65.3411H65.3406H65.3401H65.3396H65.339H65.3385H65.338H65.3375H65.3369H65.3364H65.3359H65.3354H65.3349H65.3343H65.3338H65.3333H65.3328H65.3322H65.3317H65.3312H65.3307H65.3302H65.3296H65.3291H65.3286H65.3281H65.3275H65.327H65.3265H65.326H65.3255H65.3249H65.3244H65.3239H65.3234H65.3228H65.3223H65.3218H65.3213H65.3208H65.3202H65.3197H65.3192H65.3187H65.3181H65.3176H65.3171H65.3166H65.316H65.3155H65.315H65.3145H65.314H65.3134H65.3129H65.3124H65.3119H65.3113H65.3108H65.3103H65.3098H65.3093H65.3087H65.3082H65.3077H65.3072H65.3066H65.3061H65.3056H65.3051H65.3046H65.304H65.3035H65.303H65.3025H65.3019H65.3014H65.3009H65.3004H65.2999H65.2993H65.2988H65.2983H65.2978H65.2972H65.2967H65.2962H65.2957H65.2952H65.2946H65.2941H65.2936H65.2931H65.2925H65.292H65.2915H65.291H65.2905H65.2899H65.2894H65.2889H65.2884H65.2878H65.2873H65.2868H65.2863H65.2858H65.2852H65.2847H65.2842H65.2837H65.2831H65.2826H65.2821H65.2816H65.2811H65.2805H65.28H65.2795H65.279H65.2784H65.2376H65.1967H65.1558H65.1149H65.074H65.0331H64.9922H64.9513H64.9104H64.8696H64.8287H64.7878H64.7469H64.706H64.6651H64.6242H64.5833H64.5424H64.5016H64.4607H64.4198H64.3789H64.338H64.2971H64.2562H64.2153H64.1744H64.1336H64.0927H64.0518H64.0109H63.97H63.9291H63.8882H63.8473H63.8064H63.7656H63.7247H63.6838H63.6429H63.602H63.5611H63.5202H63.4793H63.4384H63.3976H63.3567H63.3158H63.2749H63.234H63.1931H63.1522H63.1113H63.0704H63.0296H62.9887H62.9478H62.9069H62.866H62.8251H62.7842H62.7433H62.7024H62.6616H62.6207H62.5798H62.5389H62.498H62.4571H62.4162H62.3753H62.3344H62.2936H62.2527H62.2118H62.1709H62.13H62.0891H62.0482H62.0073H61.9664H61.9256H61.8847H61.8438H61.8029H61.762H61.7211H61.6802H61.6393H61.5984H61.5575H61.5167H61.4758H61.4349H61.394H61.3531H61.3122H61.2713H61.2304H61.1895H61.1487H61.1078H61.0669H61.026H60.9851H60.9442H60.9033H60.8624H60.8215H60.7807H60.7398H60.6989H60.658H60.6171H60.5762H60.5353H60.4944H60.4535H60.4127H60.3718H60.3309H60.29H60.2491H60.2082H60.1673H60.1264H60.0855H60.0447H60.0038H59.9629H59.922H59.8811H59.8402H59.7993H59.7584H59.7175H59.6767H59.6358H59.5949H59.554H59.5131H59.4722H59.4313H59.3904H59.3495H59.3087H59.2678H59.2269H59.186H59.1451H59.1042H59.0633H59.0224H58.9815H58.9407H58.8998H58.8589H58.818H58.7771H58.7362H58.6953H58.6544H58.6135H58.5727H58.5318H58.4909H58.45H58.4091H58.3682H58.3273H58.2864H58.2455H58.2047H58.1638H58.1229H58.082H58.0411H58.0002H57.9593H57.9184H57.8775H57.8367H57.7958H57.7549H57.714H57.6731H57.6322H57.5913H57.5504H57.5095H57.4687H57.4278H57.3869H57.346H57.3051H57.2642H57.2233H57.1824H57.1415H57.1007H57.0598H57.0189H56.978H56.9371H56.8962H56.8553H56.8144H56.7735H56.7327H56.6918H56.6509H56.61H56.5691H56.5282H56.4873H56.4464H56.4055H56.3647H56.3238H56.2829H56.242H56.2011H56.1602H56.1193H56.0784H56.0375H55.9967H55.9558H55.9149H55.874H55.8331H55.7922H55.7513H55.7104H55.6695H55.6287H55.5878H55.5469H55.506H55.4651H55.4242H55.3833H55.3424H55.3015H55.2606H55.2198H55.1789H55.138H55.0971H55.0562H55.0153H54.9744H54.9335H54.8926H54.8518H54.8109H54.77H54.7291H54.6882H54.6473H54.6064H54.5655H54.5246H54.4838H54.4429H54.402H54.3611H54.3202H54.2793H54.2384H54.1975H54.1566H54.1158H54.0749H54.034H53.9931H53.9522H53.9113H53.8704H53.8295H53.7886H53.7478H53.7069H53.666H53.6251H53.5842H53.5433H53.5024H53.4615H53.4206H53.3798H53.3389H53.298H53.2571H53.2162H53.1753H53.1344H53.0935H53.0526H53.0118H52.9709H52.93H52.8891H52.8482H52.8073H52.7664H52.7255H52.6846H52.6438H52.6029H52.562H52.5211H52.4802H52.4393H52.3984H52.3575H52.3166H52.2758H52.2349H52.194H52.1531H52.1122H52.0713H52.0304H51.9895H51.9486H51.9078H51.8669H51.826H51.7851H51.7442H51.7033H51.6624H51.6215H51.5806H51.5398H51.4989H51.458H51.4171H51.3762H51.3353H51.2944H51.2535H51.2126H51.1718H51.1309H51.09H51.0491H51.0082H50.9673H50.9264H50.8855H50.8446H50.8038H50.7629H50.722H50.6811H50.6402H50.5993H50.5584H50.5175H50.4766H50.4358H50.3949H50.354H50.3131H50.2722H50.2313H50.1904H50.1495H50.1086H50.0678H50.0269H49.986H49.9451H49.9042H49.8633H49.8224H49.7815H49.7406H49.6998H49.6589H49.618H49.5771H49.5362H49.4953H49.4544H49.4135H49.3726H49.3318H49.2909H49.25H49.2091H49.1682H49.1273H49.0864H49.0455H49.0046H48.9638H48.9229H48.882H48.8411H48.8002H48.7593H48.7184H48.6775H48.6366H48.5957H48.5549H48.514H48.4731H48.4322H48.3913H48.3504H48.3095H48.2686H48.2277H48.1869H48.146H48.1051H48.0642H48.0233H47.9824H47.9415H47.9006H47.8597H47.8189H47.778H47.7371H47.6962H47.6553H47.6144H47.5735H47.5326H47.4917H47.4509H47.41H47.3691H47.3282H47.2873H47.2464H47.2055H47.1646H47.1237H47.0829H47.042H47.0011H46.9602H46.9193H46.8784H46.8375H46.7966H46.7557H46.7149H46.674H46.6331H46.5922H46.5513H46.5104H46.4695H46.4286H46.3877H46.3469H46.306H46.2651H46.2242H46.1833H46.1424H46.1015H46.0606H46.0197H45.9789H45.938H45.8971H45.8562H45.8153H45.7744H45.7335H45.6926H45.6517H45.6109H45.57H45.5291H45.4882H45.4473H45.4064H45.3655H45.3246H45.2837H45.2429H45.202H45.1611H45.1202H45.0793H45.0384H44.9975H44.9566H44.9157H44.8749H44.834H44.7931H44.7522H44.7113H44.6704H44.6295H44.5886H44.5477H44.5069H44.466H44.4251H44.3842H44.3433C44.1158 25.0662 43.8775 25.0928 43.655 25.1321L43.655 25.1321L43.6522 25.1326C42.8144 25.2974 42.1862 25.98 42.2711 26.86C42.4521 28.8886 43.1888 30.7087 44.3479 32.3572L44.3479 32.3572L44.3495 32.3594C44.5419 32.6231 44.7917 32.7813 45.0724 32.8265C45.3506 32.8713 45.6429 32.8025 45.9202 32.6432C46.494 32.3192 46.661 31.6427 46.3621 31.045Z" fill="#2563EB" stroke="#2563EB" stroke-width="0.3"/>
<path d="M30.9903 38.6987H30.6281C24.7843 38.6987 20.1958 34.4647 19.7563 28.9718C19.317 23.5063 23.2441 18.5468 28.7079 17.7072L28.7085 17.7072C30.258 17.4747 31.8089 17.578 33.321 18.0432L33.3211 18.0433C33.7695 18.1817 34.1078 18.3834 34.3035 18.6603C34.5042 18.9443 34.5388 19.2841 34.4265 19.6562L34.4263 19.6567C34.3187 20.0083 34.0974 20.2569 33.7793 20.3785C33.468 20.4975 33.0825 20.4881 32.6511 20.3686C28.0794 19.1036 23.4944 21.6714 22.4203 26.155C21.6314 29.4611 22.5797 32.2803 25.1836 34.4213L30.9903 38.6987ZM30.9903 38.6987L30.9718 38.6802M30.9903 38.6987L30.9718 38.6802M30.9718 38.6802C32.3409 38.6248 33.8771 38.1889 35.322 37.4072L35.3221 37.4072C35.656 37.2263 35.8822 36.9661 35.9819 36.6669C36.0818 36.3672 36.0503 36.0417 35.8929 35.7412C35.7353 35.4403 35.4903 35.2361 35.1898 35.1508C34.8914 35.0661 34.5527 35.1024 34.2097 35.2533L34.2081 35.254C34.1355 35.287 34.0634 35.3231 33.9942 35.3577L33.9929 35.3583C33.9229 35.3933 33.8557 35.4269 33.789 35.4573C30.7027 36.7993 27.7842 36.5465 25.184 34.4215L30.9718 38.6802Z" fill="#2563EB" stroke="#2563EB" stroke-width="0.3"/>
<path d="M44.2823 18.8359L44.2823 18.8368C44.2956 20.9837 46.045 22.6915 48.1889 22.6916L48.1898 22.6915C50.3485 22.6783 52.0573 20.9426 52.0573 18.7977L52.0573 18.7967C52.0441 16.6638 50.2702 14.916 48.1498 14.9293C46.0032 14.9425 44.2823 16.7043 44.2823 18.8359ZM49.618 18.7892C49.6396 19.5446 49.075 20.1692 48.3389 20.2446V20.2373L48.1868 20.2395C47.3652 20.251 46.7217 19.617 46.7217 18.8104C46.7217 18.018 47.3894 17.3692 48.1878 17.3686C48.961 17.3808 49.6065 18.017 49.618 18.7872L49.618 18.7872L49.618 18.7892Z" fill="#2563EB" stroke="#2563EB" stroke-width="0.3"/>
<path d="M61.5089 22.1569H61.6589V22.1421C63.6072 22.076 65.1353 20.4854 65.1353 18.5305L65.1353 18.5295C65.122 16.5499 63.4631 14.9029 61.4814 14.9295C59.5036 14.9561 57.8954 16.562 57.8952 18.53C57.8821 20.5364 59.5035 22.1569 61.5089 22.1569ZM61.4961 17.3816L61.4987 17.3816C62.1648 17.3703 62.7185 17.9369 62.6961 18.589C62.6735 19.2305 62.1575 19.7176 61.4961 19.7176C60.8413 19.7176 60.3345 19.1999 60.3345 18.556C60.3345 17.9238 60.8677 17.3816 61.4961 17.3816Z" fill="#2563EB" stroke="#2563EB" stroke-width="0.3"/>
<path d="M29.7239 32.3063H29.8739V32.2936C30.1325 32.294 30.3923 32.2952 30.6528 32.2963C31.2773 32.2992 31.9053 32.302 32.5265 32.2935C32.9328 32.2933 33.2725 32.1882 33.5166 31.9829C33.7631 31.7756 33.8964 31.4792 33.9106 31.1309L33.9106 31.1309L33.9107 31.1278C33.9179 30.7742 33.7835 30.4584 33.5354 30.2323C33.2885 30.0074 32.9388 29.8798 32.5265 29.8796C30.6793 29.8669 28.8322 29.8669 26.985 29.8796V29.8796L26.9836 29.8797C26.5669 29.8865 26.214 30.0133 25.9666 30.2387C25.7173 30.4658 25.5865 30.7831 25.601 31.1435L25.601 31.1438C25.6153 31.4876 25.7529 31.7831 25.9996 31.9908C26.2445 32.1971 26.584 32.3063 26.9861 32.3063H26.9914H26.9968H27.0022H27.0075H27.0129H27.0183H27.0237H27.029H27.0344H27.0398H27.0451H27.0505H27.0559H27.0612H27.0666H27.072H27.0773H27.0827H27.0881H27.0934H27.0988H27.1042H27.1095H27.1149H27.1203H27.1256H27.131H27.1364H27.1417H27.1471H27.1525H27.1578H27.1632H27.1686H27.1739H27.1793H27.1846H27.19H27.1954H27.2007H27.2061H27.2115H27.2168H27.2222H27.2275H27.2329H27.2383H27.2436H27.249H27.2543H27.2597H27.2651H27.2704H27.2758H27.2811H27.2865H27.2918H27.2972H27.3026H27.3079H27.3133H27.3186H27.324H27.3293H27.3347H27.34H27.3454H27.3508H27.3561H27.3615H27.3668H27.3722H27.3775H27.3829H27.3882H27.3936H27.3989H27.4043H27.4097H27.415H27.4204H27.4257H27.4311H27.4364H27.4418H27.4471H27.4525H27.4578H27.4632H27.4685H27.4739H27.4792H27.4846H27.4899H27.4953H27.5006H27.506H27.5113H27.5167H27.522H27.5274H27.5327H27.5381H27.5434H27.5488H27.5541H27.5595H27.5648H27.5702H27.5755H27.5808H27.5862H27.5915H27.5969H27.6022H27.6076H27.6129H27.6183H27.6236H27.629H27.6343H27.6397H27.645H27.6503H27.6557H27.661H27.6664H27.6717H27.6771H27.6824H27.6878H27.6931H27.6984H27.7038H27.7091H27.7145H27.7198H27.7252H27.7305H27.7358H27.7412H27.7465H27.7519H27.7572H27.7626H27.7679H27.7732H27.7786H27.7839H27.7893H27.7946H27.7999H27.8053H27.8106H27.816H27.8213H27.8266H27.832H27.8373H27.8427H27.848H27.8534H27.8587H27.864H27.8694H27.8747H27.88H27.8854H27.8907H27.8961H27.9014H27.9067H27.9121H27.9174H27.9228H27.9281H27.9334H27.9388H27.9441H27.9495H27.9548H27.9601H27.9655H27.9708H27.9761H27.9815H27.9868H27.9922H27.9975H28.0028H28.0082H28.0135H28.0188H28.0242H28.0295H28.0349H28.0402H28.0455H28.0509H28.0562H28.0615H28.0669H28.0722H28.0775H28.0829H28.0882H28.0936H28.0989H28.1042H28.1096H28.1149H28.1202H28.1256H28.1309H28.1362H28.1416H28.1469H28.1523H28.1576H28.1629H28.1683H28.1736H28.1789H28.1843H28.1896H28.1949H28.2003H28.2056H28.2109H28.2163H28.2216H28.227H28.2323H28.2376H28.243H28.2483H28.2536H28.259H28.2643H28.2696H28.275H28.2803H28.2856H28.291H28.2963H28.3016H28.307H28.3123H28.3176H28.323H28.3283H28.3337H28.339H28.3443H28.3497H28.355H28.3603H28.3657H28.371H28.3763H28.3817H28.387H28.3923H28.3977H28.403H28.4083H28.4137H28.419H28.4243H28.4297H28.435H28.4404H28.4457H28.451H28.4564H28.4617H28.467H28.4724H28.4777H28.483H28.4884H28.4937H28.499H28.5044H28.5097H28.515H28.5204H28.5257H28.5311H28.5364H28.5417H28.5471H28.5524H28.5577H28.5631H28.5684H28.5737H28.5791H28.5844H28.5897H28.5951H28.6004H28.6058H28.6111H28.6164H28.6218H28.6271H28.6324H28.6378H28.6431H28.6484H28.6538H28.6591H28.6645H28.6698H28.6751H28.6805H28.6858H28.6911H28.6965H28.7018H28.7072H28.7125H28.7178H28.7232H28.7285H28.7338H28.7392H28.7445H28.7499H28.7552H28.7605H28.7659H28.7712H28.7766H28.7819H28.7872H28.7926H28.7979H28.8032H28.8086H28.8139H28.8193H28.8246H28.8299H28.8353H28.8406H28.846H28.8513H28.8566H28.862H28.8673H28.8727H28.878H28.8833H28.8887H28.894H28.8994H28.9047H28.91H28.9154H28.9207H28.9261H28.9314H28.9368H28.9421H28.9474H28.9528H28.9581H28.9635H28.9688H28.9741H28.9795H28.9848H28.9902H28.9955H29.0009H29.0062H29.0115H29.0169H29.0222H29.0276H29.0329H29.0383H29.0436H29.049H29.0543H29.0596H29.065H29.0703H29.0757H29.081H29.0864H29.0917H29.0971H29.1024H29.1078H29.1131H29.1184H29.1238H29.1291H29.1345H29.1398H29.1452H29.1505H29.1559H29.1612H29.1666H29.1719H29.1773H29.1826H29.188H29.1933H29.1987H29.204H29.2094H29.2147H29.2201H29.2254H29.2308H29.2361H29.2415H29.2468H29.2522H29.2575H29.2629H29.2682H29.2736H29.2789H29.2843H29.2896H29.295H29.3003H29.3057H29.311H29.3164H29.3217H29.3271H29.3325H29.3378H29.3432H29.3485H29.3539H29.3592H29.3646H29.3699H29.3753H29.3807H29.386H29.3914H29.3967H29.4021H29.4074H29.4128H29.4181H29.4235H29.4289H29.4342H29.4396H29.4449H29.4503H29.4557H29.461H29.4664H29.4717H29.4771H29.4825H29.4878H29.4932H29.4985H29.5039H29.5093H29.5146H29.52H29.5253H29.5307H29.5361H29.5414H29.5468H29.5522H29.5575H29.5629H29.5683H29.5736H29.579H29.5843H29.5897H29.5951H29.6004H29.6058H29.6112H29.6165H29.6219H29.6273H29.6326H29.638H29.6434H29.6487H29.6541H29.6595H29.6649H29.6702H29.6756H29.681H29.6863H29.6917H29.6971H29.7024H29.7078H29.7132H29.7186H29.7239ZM25.7508 31.1375C25.7254 30.5008 26.2093 30.0424 26.9861 30.0296L29.7239 32.1563H29.5739H26.9861C26.2347 32.1563 25.7763 31.7488 25.7508 31.1375Z" fill="#2563EB" stroke="#2563EB" stroke-width="0.3"/>
<path d="M18.4381 30.2214L18.4382 30.2206C18.4666 29.8866 18.3779 29.58 18.1875 29.3434C17.9973 29.107 17.7133 28.9501 17.3684 28.9007C17.0262 28.8481 16.6862 28.8481 16.4829 28.8481H16.4804H16.4677V28.8481L16.4657 28.8481C14.5487 28.874 12.8042 29.5475 11.6269 30.6725L11.6269 30.6725L11.626 30.6734C11.1233 31.1621 11.0227 31.8316 11.4195 32.3608C11.8085 32.8795 12.5819 33.0342 13.1146 32.5755L13.1148 32.5753C14.3035 31.5476 15.6375 31.1755 17.1931 31.3124L17.1936 31.3124C17.8876 31.3715 18.381 30.85 18.4381 30.2214Z" fill="#2563EB" stroke="#2563EB" stroke-width="0.3"/>
<path d="M15.2295 25.7383L15.2295 25.736C15.2155 24.8037 14.4518 24.0238 13.5164 24.0093C12.5546 23.982 11.7338 24.7743 11.7332 25.7372C11.7201 26.6796 12.4561 27.4465 13.4117 27.479L13.4256 27.4928H13.4877C14.4635 27.4928 15.2295 26.7109 15.2295 25.7383ZM13.8216 25.7892C13.8216 25.7958 13.8191 25.8138 13.7974 25.8494C13.7757 25.8852 13.7416 25.9277 13.693 25.9818C13.6651 26.0127 13.6323 26.0475 13.5962 26.0857C13.5507 26.1339 13.5001 26.1876 13.4479 26.2458C13.3974 26.1755 13.3475 26.1101 13.303 26.0519C13.271 26.0099 13.2418 25.9717 13.2174 25.9382C13.1737 25.878 13.1458 25.8341 13.1311 25.8013C13.1266 25.7913 13.1243 25.7845 13.1232 25.7802C13.1481 25.7249 13.2072 25.6641 13.3063 25.5886C13.3446 25.5595 13.3841 25.5315 13.426 25.5018C13.4399 25.492 13.454 25.4821 13.4683 25.4718C13.4858 25.4593 13.5036 25.4465 13.5215 25.4334C13.5364 25.4485 13.5514 25.4633 13.566 25.4776C13.5817 25.4929 13.5968 25.5074 13.6115 25.5215C13.6444 25.5533 13.6751 25.5828 13.7045 25.6132C13.7464 25.6567 13.7775 25.6937 13.7977 25.7266C13.8178 25.7592 13.8216 25.7787 13.8216 25.7892Z" fill="#2563EB" stroke="#2563EB" stroke-width="0.3"/>
<path d="M27.3425 26.2094C27.4566 26.2257 27.5862 26.1326 27.7615 26.0067C27.8226 25.9628 27.8893 25.9149 27.9628 25.8663C27.9215 25.8326 27.8819 25.7986 27.8443 25.7652M27.3425 26.2094L27.8443 25.7652M27.3425 26.2094C27.2063 26.1912 27.083 26.0434 26.9634 25.9001C26.9492 25.8831 26.9351 25.8662 26.921 25.8495L27.3425 26.2094ZM27.8443 25.7652C27.7836 25.7113 27.7281 25.659 27.6784 25.6122C27.6435 25.5794 27.6115 25.5492 27.5827 25.5232C27.5265 25.4725 27.4842 25.4387 27.4504 25.4189C27.4292 25.4064 27.4182 25.4036 27.4148 25.4029C27.3592 25.4146 27.2941 25.4608 27.2053 25.5528C27.1746 25.5845 27.1452 25.6171 27.1138 25.6518C27.1 25.6672 27.0858 25.683 27.0709 25.6993C27.0572 25.7142 27.0432 25.7295 27.0288 25.7447C27.0394 25.7572 27.0498 25.7696 27.06 25.7818C27.0664 25.7895 27.0727 25.797 27.079 25.8045C27.1148 25.8475 27.1484 25.8877 27.1826 25.9251C27.2694 26.0199 27.326 26.0558 27.3624 26.0607L27.3638 26.0609C27.3703 26.0618 27.3877 26.0619 27.4248 26.0456C27.4624 26.0291 27.5082 26.0012 27.5679 25.9601C27.5982 25.9392 27.6318 25.9151 27.6685 25.8888C27.7211 25.851 27.78 25.8087 27.8443 25.7652ZM25.6008 25.7509C25.6008 26.6788 26.3064 27.4022 27.218 27.4741V27.4949L27.3702 27.4927C28.3411 27.4788 29.1244 26.7005 29.097 25.7222C29.0826 24.7757 28.304 24.0098 27.3691 24.0092C26.4075 23.9958 25.6008 24.7887 25.6008 25.7509Z" fill="#2563EB" stroke="#2563EB" stroke-width="0.3"/>
</svg>
