<svg width="80" height="80" viewBox="0 0 80 80" fill="none" xmlns="http://www.w3.org/2000/svg">
<circle cx="40" cy="40" r="40" fill="white"/>
<path d="M75.7175 41.436C75.5068 42.8242 75.3704 44.2124 75.0977 45.5881C73.7963 52.0332 70.7101 57.5363 66.211 62.2834C62.5299 66.1752 58.1918 69.1498 53.2589 71.2445C53.0853 71.3188 52.9242 71.3808 52.6144 71.5172C53.2713 71.8146 53.829 72.0501 54.3744 72.3104C55.1304 72.6574 55.3659 73.2028 55.0808 73.8597C54.8082 74.5042 54.2008 74.7149 53.4696 74.405C52.0318 73.7853 50.6065 73.1532 49.1811 72.5087C48.3383 72.1245 48.1276 71.4428 48.6234 70.6495C49.4662 69.3357 50.3214 68.0219 51.189 66.7205C51.6104 66.076 52.3045 65.9273 52.8498 66.3115C53.3952 66.6833 53.482 67.3031 53.0977 67.96C52.887 68.307 52.6639 68.6417 52.4532 68.9763C52.4904 69.0259 52.5276 69.0755 52.5648 69.125C53.8786 68.4434 55.2296 67.8236 56.5062 67.0676C64.0791 62.5436 69.4955 56.2349 72.1603 47.7448C74.1558 41.3741 73.7591 35.0405 71.5901 28.7814C71.5034 28.5211 71.3918 28.2608 71.3175 28.0005C71.082 27.2569 71.367 26.6495 72.0115 26.4388C72.6065 26.2405 73.2262 26.5504 73.4617 27.2569C73.9203 28.6326 74.4284 29.996 74.7383 31.3966C75.1225 33.169 75.3208 34.9786 75.6059 36.7633C75.6431 36.9864 75.6927 37.2095 75.7299 37.4326V41.436H75.7175Z" fill="#2563EB"/>
<path d="M24.3434 49.3561C23.6865 47.6085 23.1163 46.0716 22.509 44.5347C22.447 44.3859 22.1867 44.2372 22.0132 44.2248C21.4431 44.1876 20.8605 44.2248 20.2904 44.2124C18.7163 44.1752 17.5884 43.0845 17.5636 41.5228C17.5388 40.2834 17.5388 39.0316 17.5636 37.7921C17.6008 36.218 18.7287 35.1273 20.2904 35.1026C20.9597 35.1026 21.629 35.1026 22.2611 35.1026C22.7569 33.8879 23.2031 32.6857 23.736 31.533C24.3557 30.182 24.3929 30.1944 23.327 29.1285C21.7529 27.5544 21.7529 26.1414 23.3518 24.555C24.1079 23.8113 24.8639 23.0676 25.6448 22.3611C26.8222 21.2952 28.3343 21.32 29.487 22.4355C29.9952 22.9313 30.4538 23.4766 30.8008 23.8609C32.536 23.204 34.0729 22.6338 35.6098 22.0265C35.771 21.9645 35.9445 21.729 35.9569 21.5555C35.9941 20.9606 35.9569 20.3657 35.9817 19.7583C36.0188 18.0975 37.0972 17.0068 38.7704 16.982C39.9479 16.9572 41.1129 16.9696 42.2904 16.982C43.8645 17.0068 44.9304 18.0231 45.0172 19.5972C45.0543 20.3533 44.8188 21.2828 45.1783 21.8034C45.5129 22.2868 46.4921 22.3116 47.1738 22.5966C48.0786 22.9809 48.9586 23.4271 50.0989 23.96C50.4583 23.5386 50.8797 22.9933 51.3631 22.5099C52.429 21.4316 54.0279 21.382 55.131 22.4355C56.0605 23.3279 56.9653 24.2451 57.8329 25.1995C58.8617 26.3521 58.7997 27.8766 57.7214 28.9921C57.3248 29.4011 56.891 29.7854 56.5067 30.2192C56.3828 30.3555 56.296 30.6406 56.358 30.7769C57.0025 32.3138 57.6842 33.8383 58.4031 35.4744C58.9856 35.4744 59.7169 35.462 60.4481 35.4744C62.0346 35.5116 63.1377 36.5775 63.1625 38.164C63.1873 39.4034 63.1873 40.6552 63.1625 41.8947C63.1253 43.4316 62.0222 44.5223 60.4853 44.5595C59.8036 44.5842 58.936 44.3488 58.465 44.6834C58.0065 45.0057 57.9693 45.9104 57.6966 46.5302C57.3495 47.3358 57.0025 48.129 56.5687 48.8851C56.3208 49.3189 56.358 49.5668 56.7298 49.8766C57.0769 50.1741 57.3867 50.5212 57.709 50.8434C58.7997 51.9465 58.8741 53.4958 57.8081 54.6237C56.891 55.5904 55.9366 56.52 54.9326 57.4C53.8667 58.342 52.3298 58.2552 51.2887 57.2761C50.8921 56.8918 50.4831 56.52 50.1236 56.0986C49.8386 55.7764 49.6031 55.7516 49.1941 55.9375C47.905 56.52 46.5788 57.053 45.2527 57.5488C44.8932 57.6851 44.7197 57.809 44.7445 58.2057C44.7693 58.7138 44.7569 59.222 44.7445 59.7302C44.7073 61.4778 43.6166 62.5809 41.8814 62.5685C40.5304 62.5685 39.167 62.5437 37.816 62.4445C36.6262 62.3578 35.7214 61.3662 35.647 60.1516C35.6098 59.5318 35.6098 58.9121 35.647 58.2924C35.6718 57.8958 35.5231 57.7471 35.1636 57.6107C33.825 57.0778 32.4865 56.52 31.1727 55.9251C30.8504 55.7764 30.6521 55.7516 30.4042 56.0242C30.0572 56.4209 29.6605 56.7803 29.2887 57.1521C28.2104 58.2057 26.6735 58.2676 25.558 57.2389C24.5788 56.3341 23.6493 55.3673 22.7693 54.3758C21.8025 53.2851 21.8893 51.7358 22.9056 50.6947C23.4138 50.1741 23.9715 49.6907 24.3557 49.3437L24.3434 49.3561ZM40.171 60.3251C40.7039 60.3251 41.2245 60.3251 41.7574 60.3251C42.2408 60.3375 42.4639 60.1516 42.4515 59.631C42.4267 58.7386 42.4391 57.8338 42.4515 56.9414C42.4515 56.173 42.7614 55.8011 43.5174 55.6524C45.5005 55.2558 47.3349 54.4997 49.0577 53.4338C49.789 52.9752 50.2352 53.0372 50.8425 53.6321C51.4622 54.2395 52.0943 54.8592 52.7017 55.4913C53.0487 55.8631 53.3338 55.8631 53.6808 55.5161C54.4245 54.7724 55.1929 54.0288 55.9614 53.3099C56.3456 52.9628 56.3208 52.6778 55.9614 52.3431C55.3293 51.7358 54.7219 51.1161 54.1022 50.4964C53.6312 50.0254 53.5569 49.48 53.9163 48.9347C55.0566 47.2119 55.8622 45.3403 56.3084 43.32C56.4696 42.6011 56.9405 42.2913 57.6594 42.3037C58.5146 42.3037 59.3574 42.2913 60.2127 42.3037C60.7208 42.3161 60.9191 42.1178 60.9067 41.6096C60.8819 40.5685 60.8819 39.5397 60.9067 38.4986C60.9191 37.9161 60.6588 37.7302 60.1135 37.7426C59.1963 37.7673 58.2667 37.7426 57.3495 37.7426C56.6803 37.7426 56.2465 37.4079 56.1225 36.7634C55.7507 34.7183 54.945 32.8592 53.8543 31.0992C53.4329 30.4299 53.4949 29.9961 54.0403 29.4259C54.66 28.7814 55.2921 28.1369 55.949 27.5296C56.3208 27.1826 56.3084 26.8975 55.949 26.5504C55.2177 25.8192 54.4865 25.0755 53.7924 24.3195C53.3957 23.8733 53.0859 23.9352 52.7141 24.3319C52.1439 24.9392 51.549 25.5093 50.9541 26.0919C50.3839 26.6496 49.9501 26.7116 49.2932 26.2778C47.5952 25.1747 45.7608 24.4062 43.8025 23.9352C42.9721 23.7369 42.7118 23.3899 42.7118 22.5099C42.7118 21.6299 42.687 20.7623 42.7118 19.8823C42.7242 19.4113 42.5507 19.2254 42.0673 19.2378C41.0262 19.2626 39.9974 19.2626 38.9563 19.2378C38.411 19.2378 38.225 19.4485 38.2498 19.9814C38.287 20.8986 38.2498 21.8282 38.2498 22.7454C38.2498 23.4395 37.9028 23.8981 37.2211 24.0096C35.2008 24.369 33.3541 25.1623 31.6188 26.2406C30.8876 26.6992 30.4662 26.6372 29.8465 26.0175C29.2391 25.4226 28.6318 24.8276 28.0369 24.2079C27.6774 23.8361 27.3924 23.7865 26.9957 24.1707C26.2521 24.9268 25.4836 25.6581 24.7152 26.3769C24.3557 26.7116 24.3805 26.9719 24.7152 27.2941C25.2977 27.8519 25.8555 28.422 26.4256 29.0045C27.1197 29.711 27.1693 30.1324 26.6487 30.9504C25.6076 32.5741 24.8515 34.3093 24.4301 36.1933C24.2194 37.0981 23.8848 37.3583 22.9304 37.3707C22.1 37.3707 21.2696 37.3831 20.4391 37.3707C19.9681 37.3707 19.7698 37.5566 19.7822 38.0276C19.7946 39.0811 19.807 40.1471 19.7822 41.2006C19.7698 41.7583 20.0177 41.9195 20.5383 41.9071C21.4183 41.8823 22.2859 41.8823 23.1659 41.9071C23.9591 41.9195 24.3186 42.2045 24.4673 42.9606C24.8639 44.9685 25.6448 46.8152 26.7355 48.5504C27.1569 49.2321 27.0949 49.6907 26.5124 50.2733C25.9174 50.8806 25.3225 51.5003 24.7028 52.0704C24.2938 52.4547 24.2566 52.7521 24.678 53.1488C25.4217 53.8676 26.1405 54.6113 26.847 55.3797C27.1941 55.7516 27.4791 55.7392 27.8262 55.3797C28.3963 54.7848 28.9912 54.2023 29.5862 53.6197C30.2059 53.0124 30.6645 52.9504 31.3586 53.409C33.0318 54.4873 34.8414 55.2558 36.7873 55.702C37.5929 55.8879 37.8532 56.2473 37.8656 57.0654C37.8656 57.9206 37.878 58.7634 37.8656 59.6186C37.8532 60.1268 38.0639 60.3251 38.5597 60.3127C39.0926 60.2879 39.6132 60.3127 40.1462 60.3127L40.171 60.3251Z" fill="#2563EB"/>
<path d="M8.40365 28.5336C7.78394 28.8434 7.26337 29.1161 6.71802 29.364C6.04872 29.6615 5.42901 29.4631 5.13154 28.8806C4.83408 28.2981 5.04478 27.6784 5.72647 27.3313C7.15182 26.5876 8.58957 25.8688 10.0397 25.1623C10.7586 24.8153 11.3535 25.026 11.7006 25.7572C12.407 27.2569 13.0763 28.7691 13.7456 30.2812C14.0555 30.9876 13.8448 31.5578 13.2127 31.8429C12.5929 32.1279 12.0104 31.9048 11.6758 31.2231C11.3535 30.5662 11.0684 29.8969 10.5851 29.2153C9.97774 31.186 9.30844 33.1319 8.77549 35.1274C7.62281 39.391 8.06901 43.6423 9.28365 47.7944C12.5682 59.0609 19.9304 66.4603 31.011 70.1786C34.3079 71.2817 37.7287 71.7155 41.1992 71.6784C41.5214 71.6784 41.8437 71.6536 42.1659 71.6784C42.8724 71.7031 43.3062 72.1369 43.3186 72.7938C43.3186 73.4384 42.8848 73.9341 42.1907 73.9217C40.3563 73.8846 38.4972 73.9217 36.6752 73.7234C30.007 72.955 24.0082 70.4637 18.7901 66.2248C11.8493 60.5854 7.68478 53.3471 6.20985 44.5099C5.34225 39.2919 6.25943 34.3589 8.11858 29.5127C8.20534 29.2772 8.29211 29.0417 8.37887 28.7938C8.39126 28.7567 8.39126 28.7071 8.41605 28.5212L8.40365 28.5336Z" fill="#2563EB"/>
<path d="M69.0991 18.3824C69.0991 17.8247 69.0867 17.4157 69.0991 17.019C69.1239 16.3002 69.6073 15.792 70.2394 15.792C70.8467 15.792 71.3549 16.2506 71.3673 16.9447C71.4045 18.5807 71.4169 20.2168 71.4045 21.8405C71.4045 22.5221 70.8715 23.0179 70.1279 23.0179C68.4298 23.0427 66.7194 23.0427 65.0214 23.0179C64.2281 23.0179 63.7695 22.5221 63.7819 21.8281C63.8067 21.1712 64.2653 20.7374 65.0214 20.725C65.9633 20.7126 66.9053 20.725 67.996 20.725C67.7481 20.4027 67.587 20.1672 67.4011 19.9565C61.3031 12.9165 53.6557 8.5537 44.4095 7.53736C32.858 6.26074 23.178 10.2269 15.5307 19.0269C15.3448 19.2376 15.1836 19.4607 15.0101 19.6714C14.5019 20.254 13.8202 20.3531 13.3121 19.9317C12.7915 19.4979 12.7295 18.8286 13.2625 18.2213C14.4648 16.8703 15.6422 15.4698 16.9684 14.2303C22.831 8.86356 29.7346 5.85172 37.6174 5.14525C45.4631 4.42637 52.7014 6.40947 59.4563 10.3385C62.9391 12.3712 66.0129 14.912 68.6901 17.9362C68.7893 18.0478 68.9008 18.1593 69.1115 18.3824H69.0991Z" fill="#2563EB"/>
<path d="M44.1988 35.1645C44.1244 34.4828 43.8022 33.9623 43.2568 33.5781C42.6991 33.2062 42.005 33.0203 41.1622 33.0203C40.5548 33.0203 40.0343 33.1195 39.6005 33.3054C39.1667 33.4913 38.8196 33.7516 38.5841 34.0738C38.3487 34.3961 38.2247 34.7679 38.2247 35.1893C38.2247 35.5364 38.3115 35.8338 38.4726 36.0941C38.6337 36.342 38.8568 36.5651 39.1295 36.7262C39.4022 36.8998 39.6872 37.0361 39.9971 37.1476C40.307 37.2592 40.6044 37.3459 40.8895 37.4203L42.3272 37.7921C42.7982 37.9037 43.2816 38.0648 43.765 38.2631C44.2484 38.4614 44.7194 38.7217 45.1284 39.0316C45.5374 39.3414 45.8844 39.7505 46.1447 40.2214C46.405 40.6924 46.5413 41.2626 46.5413 41.9195C46.5413 42.7499 46.3306 43.4936 45.8968 44.1381C45.463 44.7826 44.8557 45.2907 44.0377 45.6626C43.232 46.0344 42.2529 46.2203 41.1002 46.2203C39.9475 46.2203 39.0551 46.0468 38.2495 45.6998C37.4439 45.3527 36.8117 44.8569 36.3656 44.2124C35.907 43.5679 35.6591 42.8119 35.6095 41.9195H37.8281C37.8653 42.4524 38.0388 42.8862 38.3487 43.2457C38.6461 43.5927 39.0427 43.853 39.5137 44.0265C39.9847 44.2 40.5177 44.2868 41.0754 44.2868C41.7075 44.2868 42.2653 44.1876 42.7487 43.9893C43.232 43.791 43.6287 43.5183 43.9013 43.1589C44.1864 42.7995 44.3227 42.3905 44.3227 41.9071C44.3227 41.4733 44.1988 41.1138 43.9509 40.8412C43.703 40.5685 43.3684 40.333 42.9594 40.1471C42.5379 39.9612 42.067 39.8 41.5464 39.6637L39.8112 39.1927C38.6337 38.8705 37.7041 38.3995 37.0225 37.7798C36.3408 37.16 35.9937 36.342 35.9937 35.3133C35.9937 34.4705 36.2292 33.7268 36.6878 33.0947C37.1464 32.4626 37.7661 31.9668 38.547 31.6197C39.3278 31.2727 40.2202 31.0868 41.1994 31.0868C42.1785 31.0868 43.0709 31.2603 43.8394 31.6074C44.6078 31.9544 45.2027 32.4378 45.6489 33.0451C46.0827 33.6524 46.3182 34.3589 46.343 35.1398H44.2112L44.1988 35.1645ZM40.5177 47.8316V29.4755H41.6951V47.8316H40.5177Z" fill="#2563EB"/>
</svg>
